<?xml version="1.0" encoding="UTF-8"?>
<svg id="Layer_1" data-name="Layer 1" xmlns="http://www.w3.org/2000/svg" viewBox="0 0 2205.26 575.69">
  <defs>
    <style>
      .cls-1 {
        fill: #ff5800;
      }

      .cls-2 {
        fill: #ff5100;
      }

      .cls-3 {
        fill: #ed4300;
      }

      .cls-4 {
        fill: #ff7933;
      }
    </style>
  </defs>
  <path class="cls-1" d="M1438.74,338.13c-11.31,1.84-19.37,4.99-24.11,9.41-4.75,4.45-7.11,10.66-7.11,18.61,0,10.12,3.5,18.39,10.55,24.82,7.05,6.43,16.84,9.66,29.4,9.66,10.12,0,19.07-2.36,26.88-7.13,7.81-4.72,14.02-11.26,18.61-19.53,4.61-8.27,6.89-17.74,6.89-28.48v-10.12h-15.62c-18.99,0-34.15.92-45.49,2.77ZM1668.01,68.77h-319.97c-24,0-43.45,19.45-43.45,43.45v319.97c0,24,19.45,43.42,43.45,43.42h319.97c23.98,0,43.42-19.42,43.42-43.42V112.23c0-24-19.45-43.45-43.42-43.45ZM1554.53,409.79c0,9.52-2.31,16.79-6.89,21.83-4.61,5.07-11.17,7.59-19.77,7.59s-15.22-2.52-19.96-7.59c-4.75-5.04-7.13-12.31-7.13-21.83v-9.9c-2.28,5.72-5.21,10.98-8.95,15.65-6.29,7.81-14.19,13.89-23.68,18.15-9.49,4.31-20.37,6.46-32.6,6.46-16.25,0-30.73-3.15-43.42-9.44-12.72-6.27-22.68-14.76-29.86-25.5-7.19-10.71-10.79-22.81-10.79-36.29,0-16.54,4.29-29.62,12.86-39.27,8.57-9.66,22.51-16.63,41.82-20.91,19.28-4.29,45.16-6.43,77.63-6.43h16.08v-9.66c0-15.3-3.36-26.34-10.09-33.06-6.75-6.75-18.09-10.12-34.01-10.12-8.9,0-18.44,1.08-28.7,3.2-10.28,2.17-21.07,5.83-32.41,11.04-5.8,2.77-10.96,3.53-15.38,2.31-4.45-1.22-7.89-3.74-10.33-7.59-2.47-3.82-3.69-8.03-3.69-12.64s1.22-9.09,3.69-13.53c2.44-4.45,6.56-7.73,12.39-9.87,14.08-5.83,27.64-9.95,40.66-12.42,13.02-2.44,24.87-3.66,35.61-3.66,22.05,0,40.2,3.36,54.44,10.09,14.24,6.75,24.87,16.95,31.92,30.57,7.05,13.62,10.58,31.16,10.58,52.59v110.25ZM1651.31,407.51c0,9.79-2.44,17.47-7.35,22.97-4.88,5.51-12.1,8.27-21.59,8.27s-16.22-2.77-21.13-8.27c-4.91-5.51-7.35-13.18-7.35-22.97v-168.62c0-10.09,2.44-17.82,7.35-23.19,4.91-5.34,11.96-8.03,21.13-8.03s16.33,2.69,21.37,8.03c5.04,5.37,7.57,13.1,7.57,23.19v168.62ZM1647.64,156.9c-5.83,5.37-14.24,8.03-25.28,8.03s-19.07-2.66-25.03-8.03c-5.97-5.37-8.95-12.77-8.95-22.27s2.98-17.33,8.95-22.51c5.97-5.21,14.32-7.84,25.03-7.84s19.45,2.63,25.28,7.84c5.8,5.18,8.73,12.69,8.73,22.51s-2.93,16.9-8.73,22.27Z"/>
  <path d="M641.42,447.67c-.38-.64-.8-1.25-1.21-1.87.09.14.19.27.28.41l.03.03c.3.49.62.95.9,1.44Z"/>
  <g>
    <path class="cls-4" d="M553.51,286.44c-.13-40.29-33.2-73.14-73.49-73.01l-218.19.71,71.76-72c28.44-28.53,28.37-75.15-.17-103.59h0c-28.53-28.44-75.15-28.37-103.59.17L32.93,236.26c-6.41,6.43-11.29,13.81-14.81,21.66-.33.74-.7,1.45-1.01,2.2-.31.76-.55,1.53-.84,2.29-3.03,8.05-4.75,16.72-4.72,25.8.03,9.02,1.79,17.62,4.83,25.61.28.76.54,1.53.85,2.29.37.88.8,1.73,1.21,2.6.66,1.43,1.32,2.86,2.07,4.25.07.13.15.25.22.37,3.26,5.93,7.35,11.52,12.36,16.52h0c6.35,6.33,13.63,11.17,21.37,14.67.85.39,1.68.81,2.55,1.17.65.26,1.31.47,1.97.71,8.12,3.09,16.89,4.84,26.07,4.81l219.35-.72-73.17,73.41c-28.44,28.54-28.36,75.15.17,103.59,28.54,28.44,75.15,28.37,103.59-.17l196.89-197.53c10.69-10.72,17.35-24,19.98-37.9,1.07-4.99,1.65-10.16,1.64-15.46h0Z"/>
    <g>
      <path class="cls-3" d="M136.34,236.29c28.55,28.46,28.72,74.65.44,103.32l124.57-124.98-176.46.29c18.63.06,37.2,7.18,51.45,21.38Z"/>
      <path class="cls-3" d="M428.89,339.4c-28.66-28.57-28.74-74.92-.17-103.59l-124.82,125.23,175.96-.29c-18.45-.18-36.86-7.3-50.96-21.36Z"/>
    </g>
    <g>
      <path class="cls-2" d="M334.15,141.57c28.56-28.65,28.48-75.03-.17-103.59-28.65-28.56-75.03-28.48-103.59.17-28.56,28.65-28.48,75.03.17,103.59,28.65,28.56,75.03,28.48,103.59-.17Z"/>
      <path class="cls-2" d="M32.93,236.26c-28.56,28.65-28.48,75.03.17,103.59,28.65,28.56,75.03,28.48,103.59-.17,28.56-28.65,28.48-75.03-.17-103.59-28.65-28.56-75.03-28.48-103.59.17Z"/>
      <path class="cls-2" d="M231.04,434.12c-28.56,28.65-28.48,75.03.17,103.59,28.65,28.56,75.03,28.48,103.59-.17,28.56-28.65,28.48-75.03-.17-103.59-28.65-28.56-75.03-28.48-103.59.17Z"/>
      <path class="cls-2" d="M546.14,254.91c-.18-.38-.38-.75-.57-1.12-.48-.92-.96-1.85-1.48-2.75-.76-1.33-1.55-2.64-2.39-3.93l-.03-.03c-.66-1.01-1.34-2-2.07-2.97,0,0-.01-.02-.03-.03-.71-.99-1.47-1.93-2.22-2.88-1.58-1.92-3.25-3.77-5.04-5.56-1.8-1.79-3.66-3.45-5.58-5.02-.96-.77-1.91-1.52-2.9-2.23,0,0-.02-.01-.03-.03-.98-.72-1.97-1.4-2.98-2.06l-.03-.03c-1.14-.74-2.31-1.44-3.48-2.12-.8-.47-1.61-.91-2.43-1.34-.26-.14-.52-.27-.78-.4-7.41-3.82-15.32-6.28-23.41-7.4-.73-.1-1.47-.2-2.22-.28-.58-.06-1.15-.12-1.73-.17-1.43-.12-2.86-.21-4.31-.25-.06-.03-.14-.01-.2-.01-.61-.01-1.23-.03-1.81-.01-.27-.02-.55-.02-.82,0-11.02.14-21.99,2.81-32.05,7.9-.54.27-1.09.55-1.62.84-.66.36-1.33.71-1.98,1.1-1.27.73-2.53,1.49-3.77,2.3l-.03.03c-1.01.66-2,1.34-2.97,2.07,0,0-.02.01-.03.03-.99.71-1.93,1.47-2.88,2.22-1.92,1.58-3.77,3.25-5.56,5.04-28.57,28.66-28.49,75.02.17,103.59,14.1,14.06,32.51,21.18,50.96,21.36.27.01.55.01.82,0,18.75,0,37.51-7.19,51.8-21.53,1.79-1.8,3.45-3.66,5.03-5.58.75-.94,1.51-1.89,2.21-2.88l.03-.03c.72-.98,1.4-1.97,2.06-2.98.02-.02.03-.03.03-.03.84-1.29,1.63-2.6,2.38-3.93.52-.91,1-1.84,1.47-2.76.19-.37.38-.74.57-1.11,10.09-20.45,10.05-44.59-.11-65.01Z"/>
    </g>
  </g>
  <path class="cls-1" d="M830.63,257.28l-50.08-10.56c-17.76-3.68-30.32-8.8-37.67-15.4-7.35-6.58-11.03-15.39-11.03-26.41,0-9.8,2.68-18.3,8.04-25.5,5.36-7.19,13.09-12.79,23.2-16.77,10.1-3.98,22.2-5.98,36.29-5.98s26.03,1.38,37.68,4.14c11.64,2.75,23.12,7.35,34.45,13.78,6.43,3.67,12.17,5.22,17.23,4.6,5.05-.61,9.26-2.6,12.63-5.98,3.37-3.37,5.51-7.42,6.43-12.17.92-4.75.53-9.57-1.15-14.47-1.69-4.9-4.98-9.03-9.88-12.41-13.17-8.88-28.03-15.61-44.56-20.21-16.54-4.6-34-6.89-52.38-6.89s-35.76,2.37-51.22,7.12c-15.47,4.75-28.79,11.56-39.97,20.45-11.18,8.88-19.83,19.45-25.96,31.69-6.13,12.26-9.19,25.89-9.19,40.89,0,23.89,7.12,43.11,21.36,57.66,14.24,14.55,35.91,24.88,65.01,31.01l50.54,10.57c18.99,3.98,32.39,9.03,40.2,15.16,7.81,6.13,11.71,14.55,11.71,25.27,0,12.85-5.51,23.35-16.54,31.47-11.03,8.12-28.65,12.17-52.84,12.17-16.54,0-32.31-1.84-47.32-5.51-15.01-3.67-29.25-9.49-42.73-17.46-5.82-3.67-11.18-5.05-16.08-4.13-4.9.91-8.96,3.29-12.17,7.12-3.22,3.84-5.21,8.27-5.97,13.32-.77,5.05-.08,10.19,2.07,15.4,2.14,5.22,5.97,9.65,11.48,13.32,9.49,6.13,20.22,11.26,32.16,15.4,11.95,4.13,24.65,7.19,38.14,9.18,13.47,1.99,26.95,2.99,40.42,2.99,19.6,0,37.21-2.29,52.84-6.89,15.62-4.6,29.02-11.18,40.2-19.75,11.18-8.57,19.76-18.84,25.73-30.78,5.97-11.95,8.96-25.27,8.96-39.97,0-22.97-7.43-41.35-22.28-55.13-14.86-13.79-37.45-23.89-67.77-30.33Z"/>
  <path class="cls-1" d="M1091.3,389.59c-3.06.3-6.59.91-10.57,1.84-3.98.92-8.58,1.38-13.78,1.38-14.4,0-24.81-3.67-31.24-11.03-6.43-7.35-9.65-18.37-9.65-33.07v-94.65h48.7c7.35,0,13.02-1.9,17-5.74,3.98-3.82,5.97-9.12,5.97-15.85s-1.99-12.41-5.97-16.08c-3.98-3.67-9.65-5.51-17-5.51h-48.7v-41.81c0-9.5-2.46-16.69-7.35-21.6-4.91-4.89-11.95-7.35-21.13-7.35s-16.31,2.46-21.37,7.35c-5.05,4.91-7.58,12.1-7.58,21.6v41.81h-23.89c-7.35,0-13.02,1.84-17,5.51-3.98,3.67-5.97,9.04-5.97,16.08s1.99,12.03,5.97,15.85c3.98,3.84,9.65,5.74,17,5.74h23.89v97.86c0,19.3,3.22,35.45,9.65,48.47,6.43,13.02,16.31,22.89,29.63,29.63,13.33,6.74,29.93,10.1,49.85,10.1,4.89,0,10.57-.53,17-1.61,6.43-1.08,11.64-2.23,15.62-3.44,5.2-1.84,8.8-5.13,10.79-9.88,1.99-4.75,2.99-10.18,2.99-16.31,0-7.96-1.23-13.24-3.67-15.85-2.46-2.6-5.51-3.75-9.19-3.44Z"/>
  <path class="cls-1" d="M1265.32,211.11c-3.83-3.82-8.96-5.43-15.39-4.82-20.83,1.84-37.52,7.51-50.07,16.99-9.06,6.84-15.92,16.03-20.68,27.49v-14.62c0-9.49-2.46-16.69-7.35-21.59-4.91-4.9-11.79-7.36-20.68-7.36s-15.78,2.46-20.67,7.36c-4.91,4.9-7.35,12.1-7.35,21.59v173.66c0,9.5,2.53,16.78,7.58,21.83,5.05,5.05,12.33,7.58,21.82,7.58s16.69-2.53,21.59-7.58c4.89-5.05,7.35-12.33,7.35-21.83v-95.09c0-17.46,4.74-31.01,14.24-40.66,9.49-9.65,23.58-15.4,42.27-17.23l10.1-.92c8.27-.91,14.47-3.74,18.61-8.5,4.13-4.75,5.89-10.94,5.29-18.6-.62-7.96-2.84-13.85-6.67-17.69Z"/>
  <g>
    <path class="cls-1" d="M1959.59,212.49c-3.98-3.52-9.35-5.29-16.08-5.29-7.66,0-13.71,1.61-18.15,4.82-4.44,3.22-8.35,9.12-11.72,17.69l-56.88,138.31-55.22-137.84c-3.37-8.89-7.2-14.94-11.48-18.16-4.3-3.22-9.96-4.82-17-4.82-8.27,0-14.78,1.77-19.53,5.29-4.75,3.52-7.51,8.19-8.27,14.01-.77,5.82.23,12.1,2.99,18.84l73.05,169.52c3.68,8.28,8.34,14.41,14.01,18.38,5.67,3.98,12.33,5.98,19.99,5.98s14.78-2,20.44-5.98c5.67-3.98,10.18-10.1,13.55-18.38l74.43-169.98c3.06-6.74,4.13-12.94,3.22-18.61-.92-5.66-3.37-10.26-7.35-13.78Z"/>
    <path class="cls-1" d="M2185.65,383.62c-2.91-3.05-6.82-4.82-11.71-5.28-4.91-.46-10.57,1.15-17,4.82-8.89,4.9-18.31,8.34-28.26,10.33-9.96,2-18.92,2.99-26.88,2.99-22.97,0-40.36-6.2-52.15-18.6-9.36-9.84-14.94-23.74-16.87-41.58h138.85c7.04,0,12.47-1.45,16.31-4.37,3.82-2.9,5.74-7.12,5.74-12.63,0-17.46-2.37-33.16-7.12-47.1-4.75-13.93-11.64-25.79-20.67-35.61-9.04-9.79-19.92-17.3-32.62-22.5-12.72-5.2-27.04-7.81-42.96-7.81-21.75,0-41.11,4.98-58.11,14.93-17,9.95-30.33,23.66-39.97,41.11-9.64,17.46-14.47,37.83-14.47,61.11s4.97,44.57,14.93,62.02c9.95,17.46,24.12,30.94,42.49,40.43,18.38,9.5,40.27,14.24,65.7,14.24,11.94,0,24.88-1.61,38.82-4.82,13.93-3.22,26.26-8.19,36.99-14.93,5.51-3.37,9.42-7.36,11.72-11.94,2.29-4.6,3.13-9.12,2.53-13.56-.62-4.43-2.38-8.19-5.29-11.26ZM2059.77,254.29c9.03-5.97,19.98-8.95,32.85-8.95,11.64,0,21.37,2.52,29.17,7.58,7.81,5.05,13.78,12.33,17.92,21.82,3.43,7.88,5.36,17.44,5.94,28.49h-112.67c1.09-8.71,3.05-16.66,6.11-23.66,4.75-10.87,11.64-19.3,20.68-25.27Z"/>
  </g>
</svg>